<?xml version="1.0" standalone="no"?><!DOCTYPE svg PUBLIC "-//W3C//DTD SVG 1.1//EN" "http://www.w3.org/Graphics/SVG/1.1/DTD/svg11.dtd"><svg t="1709993801743" class="icon" viewBox="0 0 1057 1024" version="1.1" xmlns="http://www.w3.org/2000/svg" p-id="7595" xmlns:xlink="http://www.w3.org/1999/xlink" width="206.4453125" height="200"><path d="M1026.865 638.081L640.913 1024l19.921-298.42c-41.344 3.753-100.155 0.751-157.772-8.698-125.808-20.604-238.38-69.079-320.456-151.188-81.768-81.735-127.787-194.99-146.924-325.3a906.754 906.754 0 0 1-9.006-160.331l0.341-8.972c0.24-4.264 0.444-7.778 0.683-10.575l2.933-32.748 30.224-2.73c3.002-0.272 7.403-0.545 13.066-0.852l8.971-0.307 19.581-0.478 10.575-0.068c41.242 0.034 85.146 2.866 130.175 9.518 130.31 19.103 243.566 65.155 325.334 146.924 82.076 82.075 130.55 194.648 151.154 320.456 9.45 57.65 12.486 116.427 8.699 157.806l298.453-19.956zM520.29 228.011c-48.781-48.782-112.367-83.372-186.256-105.614-35.307 103.737-106.944 174.385-212.455 209.828l3.582-1.262c22.276 73.99 56.866 137.68 105.682 186.495 70.648 70.648 170.394 113.596 283.239 132.085 42.027 6.89 83.338 9.825 118.679 9.245l14.77-0.444 12.793-0.853 0.614-8.29 0.239-4.536 0.477-14.77a685.362 685.362 0 0 0-9.279-118.645c-18.455-112.88-61.403-212.592-132.05-283.24zM233.332 100.29a839.074 839.074 0 0 0-138.737-8.596 839.074 839.074 0 0 0 14.327 172.646c81.53-29.883 134.746-85.01 161.798-167.495l-3.173 9.21c-11.257-2.148-22.65-4.093-34.215-5.764z m157.5 213.274a34.113 34.113 0 1 1 14.463 66.691l-118.952 25.79a34.113 34.113 0 1 1-14.43-66.691zM511.453 434.19a34.113 34.113 0 1 1 14.43 66.656l-118.918 25.79a34.113 34.113 0 1 1-14.463-66.657z m338.81 283.99l-121.101 8.084-8.051 121.1 129.151-129.185zM182.64 131.504a34.113 34.113 0 1 1-48.304 48.27 34.113 34.113 0 0 1 48.236-48.27z" p-id="7596" fill="#ffffff"></path></svg>